<html>
<head>
<meta charset="UTF-8">
<meta name="viewport" content="width=device-width, initial-scale=1.0"/>

<style>
.comment
{
    padding-left: 20px;
    margin-top: 4px;
    margin-right: 4px;
    margin-bottom: 4px;
    border: 2px #000 solid;
}
.submission
{
    border: 4px #00f solid;
    padding-left: 20px;
}
.hidden
{
    display: none;
}
</style>
</head>
<body><div class="submission" id="t3_6s9k72">
    <p class="userinfo">
        <a href="https://www.reddit.com/u/Ed_ButteredToast">Ed_ButteredToast</a>
        <span class="score"> | 13 points</span>
        <span class="timestamp"> | Aug 07 2017 23:34:38</span>
    </p>
    <strong>[MUSIC] Halsey - 'hopeless fountain kingdom' (Deluxe 2017) - 'BADLANDS' (Deluxe 2015) - [MP3] [320KBPS] [117.6MB/131.8MB]</strong>
    <p><h6>https://itunes.apple.com/us/album/badlands-deluxe-edition/id999626332</h6>
<h6>https://itunes.apple.com/us/album/hopeless-fountain-kingdom-deluxe/id1221749987</h6>
<h1><a href="http://links.snahp.it/551_">LINK HERE</a></h1>
<p><strong>Note</strong>: <em>Password to the Snahp.it link</em> <strong><em>and</em></strong> <em>the rar files is the same and is the name of the artist</em> <strong><em>"halsey"</em></strong> <em>spelled backwards e.g WEBSITE = ETISBEW. Also when you access the MEGA link, replace "xxxx" with "mega". There will be 2 folders</em>. <strong><em>Folder1</em></strong> <em>is the album</em> <strong><em>"hopless fountain kingdom"</em></strong> <em>(Deluxe 2017) and</em> <strong><em>folder2</em></strong> is <strong><em>"BADLANDS"</em></strong> <em>(Deluxe 2015). There are 5 and 6 password protected RAR files in these folders respectively. Use the password (same for all parts) and extracting part 1 will automatically extract all the other parts too and in the end you'll be left with a 16 mp3 files in both folders plus 3 nice wallpapers that i included in the rar pack.</em></p>
<h1>Link Encoded in Base64</h1>
<p>1= <code>aHR0cHM6Ly94eHh4Lm56LyNGIWQyeGgyVHlJ</code></p>
<p>2= <code>IVBDbjUyNl9OMk1KMFhGSWNSRFFKa3c=</code></p>
<p><strong>How to decode?</strong></p>
<p><em>Go to https://www.base64decode.org and paste 1 and 2 (without any space) where it says "Type or (paste) here..." and click decode. You'll receive a link in the lower box. In that link, replace xxxx with MEGA.</em></p>
<h1><a href="https://www.reddit.com/r/megalinks/comments/6sehe2/music_halsey_hopeless_fountain_kingdom_deluxe/">For FLAC version, click here.</a></h1>
<h2>---</h2>
<h2>---</h2>
<h2>---</h2>
<h2>---</h2>
<h2>---</h2>
<h1><code>General</code></h1>
<p><code>Complete name                  : 04. Heaven In Hiding.mp3</code></p>
<p><code>Format                         : MPEG Audio</code></p>
<p><code>File size                      : 8.17 MiB</code></p>
<p><code>Duration                       : 3mn 27s</code></p>
<p><code>Overall bit rate mode          : Constant</code></p>
<p><code>Overall bit rate               : 320 Kbps</code></p>
<p><code>Album                          : hopeless fountain kingdom</code></p>
<p><code>Album/Performer                : Halsey</code></p>
<p><code>Part/Position                  : 1</code></p>
<p><code>Track name                     : Heaven In Hiding</code></p>
<p><code>Track name/Position            : 4</code></p>
<p><code>Track name/Total               : 16</code></p>
<p><code>Performer                      : Halsey</code></p>
<p><code>Recorded date                  : 2017-02-06</code></p>
<p><code>Writing library                : LAME3.99.5</code></p>
<p><code>BPM                            : 118</code></p>
<p><code>Cover                          : Yes</code></p>
<p><code>Cover type                     : Cover (front)</code></p>
<p><code>Cover MIME                     : image/jpg</code></p>
<p><code>ARTISTS                        : Halsey (Main)</code></p>
<h1><code>Audio</code></h1>
<p><code>Format                         : MPEG Audio</code></p>
<p><code>Format version                 : Version 1</code></p>
<p><code>Format profile                 : Layer 3</code></p>
<p><code>Mode                           : Joint stereo</code></p>
<p><code>Duration                       : 3mn 27s</code></p>
<p><code>Bit rate mode                  : Constant</code></p>
<p><code>Bit rate                       : 320 Kbps</code></p>
<p><code>Channel(s)                     : 2 channels</code></p>
<p><code>Sampling rate                  : 44.1 KHz</code></p>
<p><code>Compression mode               : Lossy</code></p>
<p><code>Stream size                    : 7.90 MiB (97%)</code></p>
<p><code>Writing library                : LAME3.99.5</code></p>
<h2>---</h2>
<hr>
<h1><code>General</code></h1>
<p><code>Complete name                  : 01. Castle.mp3</code></p>
<p><code>Format                         : MPEG Audio</code></p>
<p><code>File size                      : 10.8 MiB</code></p>
<p><code>Duration                       : 4mn 37s</code></p>
<p><code>Overall bit rate mode          : Constant</code></p>
<p><code>Overall bit rate               : 320 Kbps</code></p>
<p><code>Album                          : BADLANDS</code></p>
<p><code>Album/Performer                : Halsey</code></p>
<p><code>Part/Position                  : 1</code></p>
<p><code>Track name                     : Castle</code></p>
<p><code>Track name/Position            : 1</code></p>
<p><code>Track name/Total               : 16</code></p>
<p><code>Performer                      : Halsey</code></p>
<p><code>Recorded date                  : 2015-28-08</code></p>
<p><code>Writing library                : LAME3.99.5U@Xÿÿíÿ÷íì</code></p>
<p><code>BPM                            : 130</code></p>
<p><code>Cover                          : Yes</code></p>
<p><code>Cover type                     : Cover (front)</code></p>
<p><code>Cover MIME                     : image/jpg</code></p>
<p><code>ARTISTS                        : Halsey (Main)</code></p>
<h1><code>Audio</code></h1>
<p><code>Format                         : MPEG Audio</code></p>
<p><code>Format version                 : Version 1</code></p>
<p><code>Format profile                 : Layer 3</code></p>
<p><code>Mode                           : Joint stereo</code></p>
<p><code>Duration                       : 4mn 37s</code></p>
<p><code>Bit rate mode                  : Constant</code></p>
<p><code>Bit rate                       : 320 Kbps</code></p>
<p><code>Channel(s)                     : 2 channels</code></p>
<p><code>Sampling rate                  : 44.1 KHz</code></p>
<p><code>Compression mode               : Lossy</code></p>
<p><code>Stream size                    : 10.6 MiB (98%)</code></p>
<p><code>Writing library                : LAME3.99.5U@Xÿÿíÿ÷íì</code></p></p>
    <p class="toolbar">
        <a href="https://www.reddit.com/r/megalinks/comments/6s9k72">permalink</a>
    </p>
</div>

</body>

<script>
function toggle_collapse(comment_div)
{
    var button = comment_div.getElementsByClassName("toggle_hide_button")[0];
    var collapsible = comment_div.getElementsByClassName("collapsible")[0];
    if (collapsible.classList.contains("hidden"))
    {
        collapsible.classList.remove("hidden");
        button.innerText = "[-]";
    }
    else
    {
        collapsible.classList.add("hidden");
        button.innerText = "[+]";
    }
}
</script>
</html>
